<?xml version="1.0" encoding="UTF-8"?>
<svg id="Layer_1" data-name="Layer 1" xmlns="http://www.w3.org/2000/svg" viewBox="0 0 3706.24 2295.13">
  <defs>
    <style>
      .cls-1 {
        fill: #3e638d;
        stroke-width: 0px;
      }
    </style>
  </defs>
  <path class="cls-1" d="M2974.16,1395.74c3.34,0,6.13-2.67,6.14-6,0-.02,0-.04,0-.06,0-28.97-62.14-52.45-138.79-52.45-12.89,0-25.37.67-37.22,1.91-1.92.2-3.81-.5-5.14-1.9-20.74-21.98-52.9-36.1-89.01-36.1-38.82,0-73.07,16.31-93.48,41.18-1.46,1.78-3.78,2.6-6.04,2.14-6.82-1.39-14.02-2.13-21.47-2.13-38.44,0-70.37,19.8-76.72,45.83-.94,3.86,2,7.59,5.98,7.59h455.74Z"/>
  <path class="cls-1" d="M2018.94,919.74c10.04,0,17.34-9.46,14.89-19.19-11.89-47.26-66.35-82.97-131.75-82.97-16.49,0-32.28,2.27-46.86,6.43-5.63,1.6-11.7-.19-15.58-4.57-40.49-45.71-108.1-75.66-184.69-75.66-68.51,0-129.85,23.97-171,61.75-5.41,4.96-13.58,5.29-19.49.93-23.26-17.17-52.01-27.32-83.14-27.32-43.05,0-81.57,19.41-107.28,49.95-3.46,4.11-8.83,6.03-14.13,5.22-9.12-1.39-18.59-2.13-28.33-2.13-60.76,0-111.72,28.56-125.46,67.03-3.57,10,3.86,20.53,14.48,20.53h898.34Z"/>
</svg>